<mxfile host="app.diagrams.net" modified="2021-04-22T00:10:27.813Z" agent="5.0 (Windows NT 10.0; Win64; x64) AppleWebKit/537.36 (KHTML, like Gecko) Chrome/90.0.4430.85 Safari/537.36" etag="EESQjV48TSUEBHnTFfjo" version="14.6.2" type="github">
  <diagram id="sSMh7Mj8uq1PbPDicRrX" name="Page-1">
    <mxGraphModel dx="1681" dy="609" grid="1" gridSize="10" guides="1" tooltips="1" connect="1" arrows="1" fold="1" page="1" pageScale="1" pageWidth="827" pageHeight="1169" math="0" shadow="0">
      <root>
        <mxCell id="0" />
        <mxCell id="1" parent="0" />
        <mxCell id="UU9deluZrK-pCLJk1Hoc-5" style="edgeStyle=orthogonalEdgeStyle;rounded=0;orthogonalLoop=1;jettySize=auto;html=1;" edge="1" parent="1" source="UU9deluZrK-pCLJk1Hoc-1" target="UU9deluZrK-pCLJk1Hoc-15">
          <mxGeometry relative="1" as="geometry">
            <Array as="points">
              <mxPoint x="450" y="260" />
              <mxPoint x="450" y="330" />
            </Array>
          </mxGeometry>
        </mxCell>
        <mxCell id="UU9deluZrK-pCLJk1Hoc-18" style="edgeStyle=orthogonalEdgeStyle;rounded=0;orthogonalLoop=1;jettySize=auto;html=1;" edge="1" parent="1" source="UU9deluZrK-pCLJk1Hoc-1" target="UU9deluZrK-pCLJk1Hoc-17">
          <mxGeometry relative="1" as="geometry" />
        </mxCell>
        <mxCell id="UU9deluZrK-pCLJk1Hoc-1" value="&lt;b&gt;AWS ECS&lt;/b&gt;&lt;br&gt;BalanceService" style="points=[[0,0,0],[0.25,0,0],[0.5,0,0],[0.75,0,0],[1,0,0],[0,1,0],[0.25,1,0],[0.5,1,0],[0.75,1,0],[1,1,0],[0,0.25,0],[0,0.5,0],[0,0.75,0],[1,0.25,0],[1,0.5,0],[1,0.75,0]];outlineConnect=0;fontColor=#232F3E;gradientColor=#F78E04;gradientDirection=north;fillColor=#D05C17;strokeColor=#ffffff;dashed=0;verticalLabelPosition=bottom;verticalAlign=top;align=center;html=1;fontSize=12;fontStyle=0;aspect=fixed;shape=mxgraph.aws4.resourceIcon;resIcon=mxgraph.aws4.ecs;" vertex="1" parent="1">
          <mxGeometry x="507" y="210" width="78" height="78" as="geometry" />
        </mxCell>
        <mxCell id="UU9deluZrK-pCLJk1Hoc-12" style="edgeStyle=orthogonalEdgeStyle;rounded=0;orthogonalLoop=1;jettySize=auto;html=1;" edge="1" parent="1" source="UU9deluZrK-pCLJk1Hoc-2" target="UU9deluZrK-pCLJk1Hoc-11">
          <mxGeometry relative="1" as="geometry">
            <Array as="points">
              <mxPoint x="270" y="240" />
              <mxPoint x="270" y="180" />
            </Array>
          </mxGeometry>
        </mxCell>
        <mxCell id="UU9deluZrK-pCLJk1Hoc-20" style="edgeStyle=orthogonalEdgeStyle;rounded=0;orthogonalLoop=1;jettySize=auto;html=1;exitX=0.5;exitY=1;exitDx=0;exitDy=0;exitPerimeter=0;" edge="1" parent="1" source="UU9deluZrK-pCLJk1Hoc-1" target="UU9deluZrK-pCLJk1Hoc-19">
          <mxGeometry relative="1" as="geometry" />
        </mxCell>
        <mxCell id="UU9deluZrK-pCLJk1Hoc-2" value="&lt;b&gt;AWS ECS&lt;/b&gt;&lt;br&gt;TransactionService" style="points=[[0,0,0],[0.25,0,0],[0.5,0,0],[0.75,0,0],[1,0,0],[0,1,0],[0.25,1,0],[0.5,1,0],[0.75,1,0],[1,1,0],[0,0.25,0],[0,0.5,0],[0,0.75,0],[1,0.25,0],[1,0.5,0],[1,0.75,0]];outlineConnect=0;fontColor=#232F3E;gradientColor=#F78E04;gradientDirection=north;fillColor=#D05C17;strokeColor=#ffffff;dashed=0;verticalLabelPosition=bottom;verticalAlign=top;align=center;html=1;fontSize=12;fontStyle=0;aspect=fixed;shape=mxgraph.aws4.resourceIcon;resIcon=mxgraph.aws4.ecs;" vertex="1" parent="1">
          <mxGeometry x="130" y="210" width="78" height="78" as="geometry" />
        </mxCell>
        <mxCell id="UU9deluZrK-pCLJk1Hoc-13" style="edgeStyle=orthogonalEdgeStyle;rounded=0;orthogonalLoop=1;jettySize=auto;html=1;" edge="1" parent="1" source="UU9deluZrK-pCLJk1Hoc-11" target="UU9deluZrK-pCLJk1Hoc-1">
          <mxGeometry relative="1" as="geometry">
            <Array as="points">
              <mxPoint x="450" y="180" />
              <mxPoint x="450" y="240" />
            </Array>
          </mxGeometry>
        </mxCell>
        <mxCell id="UU9deluZrK-pCLJk1Hoc-11" value="&lt;span style=&quot;color: rgb(0 , 0 , 0) ; font-size: 11px ; background-color: rgb(255 , 255 , 255)&quot;&gt;transaction-required&lt;/span&gt;" style="outlineConnect=0;fontColor=#232F3E;gradientColor=none;strokeColor=#232F3E;fillColor=#ffffff;dashed=0;verticalLabelPosition=bottom;verticalAlign=top;align=center;html=1;fontSize=12;fontStyle=0;aspect=fixed;shape=mxgraph.aws4.resourceIcon;resIcon=mxgraph.aws4.topic;" vertex="1" parent="1">
          <mxGeometry x="330" y="150" width="60" height="60" as="geometry" />
        </mxCell>
        <mxCell id="UU9deluZrK-pCLJk1Hoc-16" style="edgeStyle=orthogonalEdgeStyle;rounded=0;orthogonalLoop=1;jettySize=auto;html=1;" edge="1" parent="1" source="UU9deluZrK-pCLJk1Hoc-15" target="UU9deluZrK-pCLJk1Hoc-2">
          <mxGeometry relative="1" as="geometry">
            <Array as="points">
              <mxPoint x="270" y="330" />
              <mxPoint x="270" y="260" />
            </Array>
          </mxGeometry>
        </mxCell>
        <mxCell id="UU9deluZrK-pCLJk1Hoc-15" value="&lt;span style=&quot;color: rgb(0 , 0 , 0) ; font-size: 11px ; background-color: rgb(255 , 255 , 255)&quot;&gt;transaction-failed&lt;/span&gt;" style="outlineConnect=0;fontColor=#232F3E;gradientColor=none;strokeColor=#232F3E;fillColor=#ffffff;dashed=0;verticalLabelPosition=bottom;verticalAlign=top;align=center;html=1;fontSize=12;fontStyle=0;aspect=fixed;shape=mxgraph.aws4.resourceIcon;resIcon=mxgraph.aws4.topic;" vertex="1" parent="1">
          <mxGeometry x="330" y="300" width="60" height="60" as="geometry" />
        </mxCell>
        <mxCell id="UU9deluZrK-pCLJk1Hoc-17" value="&lt;span style=&quot;color: rgb(0 , 0 , 0) ; font-size: 11px ; background-color: rgb(255 , 255 , 255)&quot;&gt;balance-updated&lt;/span&gt;" style="outlineConnect=0;fontColor=#232F3E;gradientColor=none;strokeColor=#232F3E;fillColor=#ffffff;dashed=0;verticalLabelPosition=bottom;verticalAlign=top;align=center;html=1;fontSize=12;fontStyle=0;aspect=fixed;shape=mxgraph.aws4.resourceIcon;resIcon=mxgraph.aws4.topic;" vertex="1" parent="1">
          <mxGeometry x="670" y="219" width="60" height="60" as="geometry" />
        </mxCell>
        <mxCell id="UU9deluZrK-pCLJk1Hoc-19" value="&lt;b&gt;AWS ECS&lt;/b&gt;&lt;br&gt;AccountsService" style="points=[[0,0,0],[0.25,0,0],[0.5,0,0],[0.75,0,0],[1,0,0],[0,1,0],[0.25,1,0],[0.5,1,0],[0.75,1,0],[1,1,0],[0,0.25,0],[0,0.5,0],[0,0.75,0],[1,0.25,0],[1,0.5,0],[1,0.75,0]];outlineConnect=0;fontColor=#232F3E;gradientColor=#F78E04;gradientDirection=north;fillColor=#D05C17;strokeColor=#ffffff;dashed=0;verticalLabelPosition=bottom;verticalAlign=top;align=center;html=1;fontSize=12;fontStyle=0;aspect=fixed;shape=mxgraph.aws4.resourceIcon;resIcon=mxgraph.aws4.ecs;" vertex="1" parent="1">
          <mxGeometry x="507" y="400" width="78" height="78" as="geometry" />
        </mxCell>
      </root>
    </mxGraphModel>
  </diagram>
</mxfile>
